<?xml version="1.0" standalone="no"?>
<svg xmlns="http://www.w3.org/2000/svg" viewBox="0 0 79.116 36" width="79.116" height="36"><g fill="#6e6e6e" color="#6e6e6e" transform="translate(0 6) scale(0.5)"><svg width="29.0" height="48.0" x="0.0" y="0.0" viewBox="0 0 29 48"><path fill="currentColor" fill-rule="evenodd" d="M24 28.8l4.8 4.8L14.4 48 0 33.6l4.8-4.8 9.6 9.6 9.6-9.6zm-9.6-14.4L24 24l-9.6 9.6L4.8 24l9.6-9.6zm0-14.4l14.4 14.4-4.8 4.8-9.6-9.6-9.6 9.6L0 14.4 14.4 0z"></path></svg></g><path fill="#1676F3" fill-rule="nonzero" d="M11.26 0.96L11.26 3.94L5.23 3.94Q4.18 3.94 3.76 4.34Q3.34 4.75 3.34 5.76L3.34 5.76L3.34 8.14L9.60 8.14L9.36 11.11L3.34 11.11L3.34 18.05L0 18.05L0 4.44Q0 2.54 0.83 1.75Q1.66 0.96 3.67 0.96L3.67 0.96L11.26 0.96ZM16.92 0L16.92 18.05L13.80 18.07L13.80 0L16.92 0ZM30.55 11.93L30.55 11.93L22.56 11.93Q22.56 13.80 23.15 14.66Q23.74 15.53 25.51 15.53L25.51 15.53Q26.66 15.53 27.22 14.80Q27.77 14.06 27.77 13.39L27.77 13.39L30.58 13.39Q30.58 15.96 29.20 17.16Q27.82 18.36 25.55 18.36Q23.28 18.36 22.03 17.71L22.03 17.71Q19.46 16.39 19.46 10.70L19.46 10.70Q19.46 7.32 20.93 5.75Q22.39 4.18 25.39 4.18L25.39 4.18Q30.60 4.18 30.60 9.96L30.60 9.96Q30.60 10.58 30.55 11.93ZM22.63 9.79L22.63 9.79L27.77 9.79Q27.77 8.21 27.17 7.49Q26.57 6.77 25.33 6.77Q24.10 6.77 23.36 7.50Q22.63 8.23 22.63 9.79ZM39.60 11.06L43.92 18.05L40.42 18.05L37.99 13.85L35.71 18.05L31.97 18.05L36.41 11.06L32.14 4.34L35.64 4.34L38.04 8.30L40.37 4.34L43.87 4.34L39.60 11.06ZM53.50 11.86L53.50 11.86L53.50 10.61Q53.50 8.83 52.98 7.90Q52.46 6.96 50.83 6.96L50.83 6.96Q48.19 6.96 48.19 10.51L48.19 10.51L48.19 11.76Q48.19 15.58 50.83 15.58L50.83 15.58Q52.54 15.58 53.06 14.30L53.06 14.30Q53.50 13.30 53.50 11.86ZM56.62 11.14L56.62 11.14Q56.62 15.58 54.94 17.09L54.94 17.09Q53.52 18.38 50.83 18.38L50.83 18.38Q47.40 18.38 46.20 16.37L46.20 16.37Q45.07 14.52 45.07 11.14L45.07 11.14Q45.07 7.97 46.20 6.17L46.20 6.17Q47.45 4.15 50.75 4.15Q54.05 4.15 55.33 5.92Q56.62 7.68 56.62 11.14Z" transform="translate(22.5, 8.976)"></path></svg>